#!OML:ASF X:\für Bonn\!DataBase\2005_08_11_Bastian_Final\c3d\Bastian.ASF
:FULLY-SPECIFIED
:DEGREES
686
root 0.355871 2.06646 -1.63504 114.322 15.582 -175.529
lowerback 53.7035 -5.44208 -12.8231
upperback 20.3333 -3.25801 -2.31061
thorax 2.83041 2.08587 4.53068
lowerneck -9.80937 1.53547 7.13895
upperneck -11.3754 3.05869 4.91671
head -1.96383 1.69187 0.388588
rclavicle 2.6165e-014 1.64991e-014
rhumerus -22.2337 19.7938 -89.1483
rradius 119.807
rwrist -175.848
rhand -18.0328 -11.7347
rfingers 7.12502
rthumb 8.2387 -41.5541
lclavicle 2.6165e-014 1.64991e-014
lhumerus -22.7129 -23.1785 91.4876
lradius 94.5679
lwrist 236.421
lhand -21.6193 26.2858
lfingers 7.12502
lthumb 4.77637 56.212
rfemur -69.546 -5.96759 31.8329
rtibia 92.4024
rfoot 12.9632 -5.57447
rtoes 3.73515
lfemur -52.91 3.83226 -6.40019
ltibia 60.6512
lfoot 15.4781 -10.6769
ltoes -26.8376
687
root 0.352613 2.06566 -1.63548 114.367 15.6479 -175.494
lowerback 53.6964 -5.464 -12.8694
upperback 20.3326 -3.32276 -2.22611
thorax 2.8461 2.02905 4.66372
lowerneck -9.76882 1.53735 7.28655
upperneck -11.2503 3.02869 4.90324
head -1.92785 1.67012 0.360263
rclavicle -2.73577e-014 -4.45278e-014
rhumerus -22.3743 19.7493 -89.2762
rradius 119.715
rwrist -176.102
rhand -17.7048 -11.5903
rfingers 7.12502
rthumb 8.55518 -41.397
lclavicle -2.73577e-014 -4.45278e-014
lhumerus -22.4365 -23.2826 91.4348
lradius 94.4608
lwrist 236.411
lhand -21.4295 26.3975
lfingers 7.12502
lthumb 4.95968 56.3195
rfemur -69.5267 -5.82326 31.8563
rtibia 92.322
rfoot 13.1094 -5.62215
rtoes 3.2846
lfemur -52.9635 3.82353 -6.31406
ltibia 60.6637
lfoot 15.5417 -10.5896
ltoes -26.7272
688
root 0.349511 2.06473 -1.63646 114.396 15.7493 -175.45
lowerback 53.7084 -5.52119 -12.8027
upperback 20.3305 -3.36973 -2.19162
thorax 2.83904 2.00244 4.6866
lowerneck -9.77864 1.50946 7.53208
upperneck -11.0804 2.94569 4.89724
head -1.86911 1.62225 0.318644
rclavicle 9.3553e-014 3.34952e-014
rhumerus -22.4921 19.5669 -89.4815
rradius 119.583
rwrist -176.316
rhand -17.4166 -11.5229
rfingers 7.12502
rthumb 8.8333 -41.318
lclavicle 9.3553e-014 3.34952e-014
lhumerus -22.1134 -23.4852 91.3074
lradius 94.3578
lwrist 236.397
lhand -21.2689 26.4211
lfingers 7.12502
lthumb 5.11467 56.3394
rfemur -69.4746 -5.67035 31.9154
rtibia 92.2432
rfoot 13.2312 -5.69502
rtoes 3.17323
lfemur -52.9974 3.85502 -6.19404
ltibia 60.6728
lfoot 15.5899 -10.5194
ltoes -26.8003
689
root 0.347012 2.06367 -1.63675 114.455 15.8078 -175.41
lowerback 53.6959 -5.55164 -12.7822
upperback 20.314 -3.41514 -2.12185
thorax 2.82575 1.9636 4.76739
lowerneck -9.74318 1.47699 7.68875
upperneck -10.9326 2.87195 4.93187
head -1.82651 1.57992 0.303629
rclavicle -4.58199e-014 1.37161e-014
rhumerus -22.5569 19.3889 -89.5595
rradius 119.371
rwrist -176.582
rhand -17.1313 -11.5429
rfingers 7.12502
rthumb 9.10869 -41.3262
lclavicle -4.58199e-014 1.37161e-014
lhumerus -21.8244 -23.6708 91.2247
lradius 94.2781
lwrist 236.391
lhand -21.0841 26.4068
lfingers 7.12502
lthumb 5.29316 56.3207
rfemur -69.4831 -5.54271 31.9533
rtibia 92.182
rfoot 13.3541 -5.68043
rtoes 2.97412
lfemur -53.0618 3.88122 -6.10698
ltibia 60.6728
lfoot 15.7154 -10.3457
ltoes -26.4171
690
root 0.344737 2.06278 -1.6374 114.503 15.8791 -175.362
lowerback 53.7105 -5.59754 -12.7165
upperback 20.2848 -3.46019 -2.06799
thorax 2.78844 1.93328 4.80935
lowerneck -9.74869 1.43269 7.84355
upperneck -10.7316 2.77663 5.00635
head -1.76094 1.52961 0.301965
rclavicle 3.7912e-014 -4.29872e-014
rhumerus -22.6309 19.2033 -89.6576
rradius 119.125
rwrist -176.745
rhand -16.8348 -11.6509
rfingers 7.12502
rthumb 9.39472 -41.4215
lclavicle 3.7912e-014 -4.29872e-014
lhumerus -21.5083 -23.8863 91.1037
lradius 94.1932
lwrist 236.373
lhand -20.8261 26.3741
lfingers 7.12502
lthumb 5.5423 56.2816
rfemur -69.4749 -5.41784 32.0057
rtibia 92.1259
rfoot 13.4268 -5.67654
rtoes 2.9574
lfemur -53.1112 3.91154 -5.99229
ltibia 60.6662
lfoot 15.8459 -10.149
ltoes -26.1025
691
root 0.343359 2.06187 -1.63802 114.553 15.9182 -175.316
lowerback 53.6887 -5.62652 -12.6948
upperback 20.2733 -3.49802 -1.99105
thorax 2.78142 1.89869 4.8956
lowerneck -9.76072 1.3833 7.94311
upperneck -10.5155 2.67513 5.0897
head -1.69002 1.47825 0.312016
rclavicle -6.33284e-014 3.97569e-014
rhumerus -22.6902 19.0067 -89.6743
rradius 118.888
rwrist -177.003
rhand -16.5927 -11.7833
rfingers 7.12502
rthumb 9.62832 -41.5433
lclavicle -6.33284e-014 3.97569e-014
lhumerus -21.1468 -24.0909 90.9855
lradius 94.1088
lwrist 236.325
lhand -20.6151 26.3096
lfingers 7.12502
lthumb 5.74598 56.2117
rfemur -69.4865 -5.30027 32.0256
rtibia 92.0909
rfoot 13.4902 -5.61931
rtoes 2.98762
lfemur -53.1598 3.94899 -5.91757
ltibia 60.651
lfoot 15.962 -9.98603
ltoes -25.9338
692
root 0.341669 2.06158 -1.6372 114.592 15.9226 -175.307
lowerback 53.6345 -5.63853 -12.7312
upperback 20.2849 -3.53425 -1.9288
thorax 2.811 1.86136 4.99328
lowerneck -9.73155 1.33565 8.0312
upperneck -10.3748 2.59586 5.20508
head -1.65111 1.43695 0.333238
rclavicle 7.12414e-014 1.26492e-014
rhumerus -22.6731 18.8132 -89.6535
rradius 118.628
rwrist -177.321
rhand -16.3808 -11.973
rfingers 7.12502
rthumb 9.83276 -41.7234
lclavicle 7.12414e-014 1.26492e-014
lhumerus -20.7369 -24.2576 90.8396
lradius 94.0285
lwrist 236.232
lhand -20.4373 26.2691
lfingers 7.12502
lthumb 5.91764 56.1664
rfemur -69.5059 -5.19926 32.0228
rtibia 92.0644
rfoot 13.5593 -5.48746
rtoes 3.04286
lfemur -53.184 3.97643 -5.87283
ltibia 60.623
lfoot 16.0928 -9.69878
ltoes -25.4447
693
root 0.340716 2.06069 -1.63798 114.643 15.9686 -175.276
lowerback 53.5878 -5.65503 -12.7196
upperback 20.2795 -3.56127 -1.85249
thorax 2.81373 1.82939 5.08087
lowerneck -9.7467 1.27768 8.08213
upperneck -10.1461 2.49062 5.35169
head -1.57721 1.38664 0.37074
rclavicle 7.45971e-014 -3.12092e-014
rhumerus -22.6781 18.6289 -89.6057
rradius 118.414
rwrist -177.624
rhand -16.2087 -12.1421
rfingers 7.12502
rthumb 9.99883 -41.8846
lclavicle 7.45971e-014 -3.12092e-014
lhumerus -20.342 -24.431 90.6971
lradius 93.95
lwrist 236.187
lhand -20.4016 26.1748
lfingers 7.12502
lthumb 5.95212 56.0712
rfemur -69.5433 -5.08855 32.08
rtibia 92.0635
rfoot 13.5996 -5.32229
rtoes 3.03525
lfemur -53.2225 4.03561 -5.78344
ltibia 60.5903
lfoot 16.2177 -9.45371
ltoes -25.2019
694
root 0.339954 2.05962 -1.63672 114.693 15.9826 -175.237
lowerback 53.5451 -5.67976 -12.7221
upperback 20.2568 -3.61508 -1.77911
thorax 2.80077 1.78117 5.17906
lowerneck -9.66129 1.22045 8.14273
upperneck -9.95286 2.39484 5.48027
head -1.53068 1.33647 0.399712
rclavicle 3.09793e-014 -5.35228e-014
rhumerus -22.7454 18.477 -89.5464
rradius 118.225
rwrist -177.935
rhand -16.0394 -12.3863
rfingers 7.12502
rthumb 10.1621 -42.1209
lclavicle 3.09793e-014 -5.35228e-014
lhumerus -20.0031 -24.6012 90.5771
lradius 93.8837
lwrist 236.153
lhand -20.373 25.9907
lfingers 7.12502
lthumb 5.97973 55.8864
rfemur -69.5919 -5.0025 32.1188
rtibia 92.071
rfoot 13.6206 -5.10684
rtoes 2.9873
lfemur -53.2553 4.05995 -5.70482
ltibia 60.5454
lfoot 16.3717 -9.1568
ltoes -24.8609
695
root 0.339773 2.05953 -1.63698 114.734 15.9687 -175.235
lowerback 53.4884 -5.67157 -12.7548
upperback 20.2296 -3.64442 -1.70788
thorax 2.78579 1.74231 5.28036
lowerneck -9.60167 1.15621 8.22132
upperneck -9.73554 2.28391 5.60951
head -1.47239 1.2803 0.426052
rclavicle -5.90018e-014 -2.38542e-015
rhumerus -22.7887 18.2633 -89.4556
rradius 118.026
rwrist -178.228
rhand -15.9213 -12.6305
rfingers 7.12502
rthumb 10.2761 -42.3595
lclavicle -5.90018e-014 -2.38542e-015
lhumerus -19.6437 -24.7856 90.4648
lradius 93.789
lwrist 236.072
lhand -20.355 25.833
lfingers 7.12502
lthumb 5.99705 55.7281
rfemur -69.6486 -4.92021 32.1332
rtibia 92.0925
rfoot 13.6469 -4.83618
rtoes 2.99763
lfemur -53.2754 4.09609 -5.66639
ltibia 60.4971
lfoot 16.5085 -8.84224
ltoes -24.605
696
root 0.339219 2.05909 -1.63779 114.784 15.9867 -175.192
lowerback 53.4275 -5.69048 -12.7457
upperback 20.2211 -3.67667 -1.63659
thorax 2.78717 1.70747 5.36557
lowerneck -9.53614 1.09168 8.36134
upperneck -9.53402 2.16911 5.70638
head -1.41976 1.22068 0.432138
rclavicle -6.56238e-014 3.598e-014
rhumerus -22.8065 18.0836 -89.3111
rradius 117.888
rwrist -178.565
rhand -15.8639 -12.7821
rfingers 7.12502
rthumb 10.3314 -42.5083
lclavicle -6.56238e-014 3.598e-014
lhumerus -19.2452 -25.009 90.3221
lradius 93.708
lwrist 235.988
lhand -20.3144 25.642
lfingers 7.12502
lthumb 6.03631 55.536
rfemur -69.6976 -4.83955 32.1878
rtibia 92.1117
rfoot 13.6221 -4.58001
rtoes 2.87255
lfemur -53.3037 4.14047 -5.59011
ltibia 60.4483
lfoot 16.6573 -8.54782
ltoes -24.3865
697
root 0.338758 2.05859 -1.63916 114.838 15.9572 -175.179
lowerback 53.3377 -5.70264 -12.7712
upperback 20.2115 -3.72057 -1.58354
thorax 2.79533 1.66333 5.45082
lowerneck -9.46099 1.01483 8.46696
upperneck -9.33074 2.04717 5.86499
head -1.3693 1.15922 0.462757
rclavicle -4.64659e-014 -1.64991e-014
rhumerus -22.7768 17.9259 -89.1471
rradius 117.755
rwrist -178.89
rhand -15.8362 -12.9077
rfingers 7.12502
rthumb 10.3582 -42.6326
lclavicle -4.64659e-014 -1.64991e-014
lhumerus -18.8959 -25.2235 90.1866
lradius 93.6626
lwrist 235.879
lhand -20.247 25.4253
lfingers 7.12502
lthumb 6.10131 55.3175
rfemur -69.7703 -4.77366 32.1926
rtibia 92.1376
rfoot 13.5982 -4.32926
rtoes 2.76766
lfemur -53.3333 4.16358 -5.55188
ltibia 60.4009
lfoot 16.8038 -8.20161
ltoes -24.1038
698
root 0.33918 2.05846 -1.641 114.888 15.9713 -175.154
lowerback 53.2384 -5.72021 -12.7731
upperback 20.2105 -3.75798 -1.53159
thorax 2.8104 1.62385 5.52305
lowerneck -9.35514 0.958605 8.65264
upperneck -9.13963 1.94541 5.95054
head -1.3265 1.10456 0.457712
rclavicle 7.82218e-014 -7.95139e-015
rhumerus -22.6936 17.7661 -88.963
rradius 117.638
rwrist -179.21
rhand -15.8623 -12.9712
rfingers 7.12502
rthumb 10.333 -42.6974
lclavicle 7.82218e-014 -7.95139e-015
lhumerus -18.5523 -25.454 90.037
lradius 93.6521
lwrist 235.762
lhand -20.164 25.0804
lfingers 7.12502
lthumb 6.18146 54.9702
rfemur -69.8189 -4.69372 32.2572
rtibia 92.154
rfoot 13.5816 -4.06076
rtoes 2.42508
lfemur -53.3646 4.22964 -5.4731
ltibia 60.3695
lfoot 16.9305 -7.87706
ltoes -24.0176
